<svg width="45" height="45" viewBox="0 0 45 45" fill="none" xmlns="http://www.w3.org/2000/svg">
<g clip-path="url(#clip0_20_95)">
<path d="M39.0112 17.3074L12.433 0.924106C10.5102 -0.259693 8.18537 -0.308912 6.21406 0.792446C4.24276 1.89363 3.0659 3.89938 3.0659 6.15738V38.7747C3.0659 42.1889 5.81689 44.9814 9.19805 44.9999C9.20727 44.9999 9.2165 45 9.22556 45C10.2822 44.9999 11.3833 44.6687 12.4117 44.0412C13.239 43.5364 13.5005 42.4566 12.9957 41.6293C12.491 40.8019 11.411 40.5406 10.5839 41.0453C10.1029 41.3387 9.6331 41.4905 9.21694 41.4904C7.94121 41.4834 6.57529 40.3906 6.57529 38.7747V6.15747C6.57529 5.18882 7.08014 4.32864 7.92565 3.85623C8.77125 3.38381 9.76837 3.40491 10.5922 3.91213L37.1704 20.2954C37.9693 20.7872 38.4264 21.6073 38.4245 22.5455C38.4225 23.4835 37.9621 24.3018 37.1588 24.792L17.9427 36.5577C17.1161 37.0638 16.8563 38.144 17.3624 38.9705C17.8684 39.797 18.9487 40.0568 19.7752 39.5507L38.9891 27.7864C40.8287 26.6641 41.9296 24.7077 41.934 22.5525C41.9384 20.3976 40.8454 18.4366 39.0112 17.3074Z" fill="#22754D"/>
</g>
<defs>
<clipPath id="clip0_20_95">
<rect width="45" height="45" fill="white"/>
</clipPath>
</defs>
</svg>
