<svg width="23" height="16" viewBox="0 0 23 16" fill="none" xmlns="http://www.w3.org/2000/svg">
<path d="M22.3536 8.35355C22.5488 8.15829 22.5488 7.84171 22.3536 7.64645L19.1716 4.46447C18.9763 4.2692 18.6597 4.2692 18.4645 4.46447C18.2692 4.65973 18.2692 4.97631 18.4645 5.17157L21.2929 8L18.4645 10.8284C18.2692 11.0237 18.2692 11.3403 18.4645 11.5355C18.6597 11.7308 18.9763 11.7308 19.1716 11.5355L22.3536 8.35355ZM0.458333 8.5H0.958333V7.5H0.458333V8.5ZM1.375 7.5H0.875V8.5H1.375V7.5ZM2.29167 8.5H2.79167V7.5H2.29167V8.5ZM3.20833 7.5H2.70833V8.5H3.20833V7.5ZM4.125 8.5H4.625V7.5H4.125V8.5ZM5.04167 7.5H4.54167V8.5H5.04167V7.5ZM5.95833 8.5H6.45833V7.5H5.95833V8.5ZM6.875 7.5H6.375V8.5H6.875V7.5ZM7.79167 8.5H8.29167V7.5H7.79167V8.5ZM8.70833 7.5H8.20833V8.5H8.70833V7.5ZM9.625 8.5H10.125V7.5H9.625V8.5ZM10.5417 7.5H10.0417V8.5H10.5417V7.5ZM11.4583 8.5H11.9583V7.5H11.4583V8.5ZM12.375 7.5H11.875V8.5H12.375V7.5ZM13.2917 8.5H13.7917V7.5H13.2917V8.5ZM14.2083 7.5H13.7083V8.5H14.2083V7.5ZM15.125 8.5H15.625V7.5H15.125V8.5ZM16.0417 7.5H15.5417V8.5H16.0417V7.5ZM16.9583 8.5H17.4583V7.5H16.9583V8.5ZM17.875 7.5H17.375V8.5H17.875V7.5ZM18.7917 8.5H19.2917V7.5H18.7917V8.5ZM19.7083 7.5H19.2083V8.5H19.7083V7.5ZM20.625 8.5H21.125V7.5H20.625V8.5ZM21.5417 7.5H21.0417V8.5H21.5417V7.5ZM0 8.5H0.458333V7.5H0L0 8.5ZM1.375 8.5H2.29167V7.5H1.375V8.5ZM3.20833 8.5H4.125V7.5H3.20833V8.5ZM5.04167 8.5H5.95833V7.5H5.04167V8.5ZM6.875 8.5H7.79167V7.5H6.875V8.5ZM8.70833 8.5H9.625V7.5H8.70833V8.5ZM10.5417 8.5H11.4583V7.5H10.5417V8.5ZM12.375 8.5H13.2917V7.5H12.375V8.5ZM14.2083 8.5H15.125V7.5H14.2083V8.5ZM16.0417 8.5H16.9583V7.5H16.0417V8.5ZM17.875 8.5H18.7917V7.5H17.875V8.5ZM19.7083 8.5H20.625V7.5H19.7083V8.5ZM21.5417 8.5H22V7.5H21.5417V8.5ZM22.7071 8.70711C23.0976 8.31658 23.0976 7.68342 22.7071 7.29289L16.3431 0.928932C15.9526 0.538408 15.3195 0.538408 14.9289 0.928932C14.5384 1.31946 14.5384 1.95262 14.9289 2.34315L20.5858 8L14.9289 13.6569C14.5384 14.0474 14.5384 14.6805 14.9289 15.0711C15.3195 15.4616 15.9526 15.4616 16.3431 15.0711L22.7071 8.70711ZM0.458333 9H1.45833V7H0.458333V9ZM1.375 7H0.375V9H1.375V7ZM2.29167 9H3.29167V7H2.29167V9ZM3.20833 7H2.20833V9H3.20833V7ZM4.125 9H5.125V7H4.125V9ZM5.04167 7H4.04167V9H5.04167V7ZM5.95833 9H6.95833V7H5.95833V9ZM6.875 7H5.875V9H6.875V7ZM7.79167 9H8.79167V7H7.79167V9ZM8.70833 7H7.70833V9H8.70833V7ZM9.625 9H10.625V7H9.625V9ZM10.5417 7H9.54167V9H10.5417V7ZM11.4583 9H12.4583V7H11.4583V9ZM12.375 7H11.375V9H12.375V7ZM13.2917 9H14.2917V7H13.2917V9ZM14.2083 7H13.2083V9H14.2083V7ZM15.125 9H16.125V7H15.125V9ZM16.0417 7H15.0417V9H16.0417V7ZM16.9583 9H17.9583V7H16.9583V9ZM17.875 7H16.875V9H17.875V7ZM18.7917 9H19.7917V7H18.7917V9ZM19.7083 7H18.7083V9H19.7083V7ZM20.625 9H21.625V7H20.625V9ZM21.5417 7H20.5417V9H21.5417V7ZM0 9H0.458333V7H0L0 9ZM1.375 9H2.29167V7H1.375V9ZM3.20833 9H4.125V7H3.20833V9ZM5.04167 9H5.95833V7H5.04167V9ZM6.875 9H7.79167V7H6.875V9ZM8.70833 9H9.625V7H8.70833V9ZM10.5417 9H11.4583V7H10.5417V9ZM12.375 9H13.2917V7H12.375V9ZM14.2083 9H15.125V7H14.2083V9ZM16.0417 9H16.9583V7H16.0417V9ZM17.875 9H18.7917V7H17.875V9ZM19.7083 9H20.625V7H19.7083V9ZM21.5417 9H22V7H21.5417V9Z" fill="#22754D"/>
</svg>
