<svg width="21" height="21" viewBox="0 0 21 21" fill="none" xmlns="http://www.w3.org/2000/svg">
<path d="M7.27097 19.4868L8.68024 19.8554C9.06324 19.9581 9.46441 19.7264 9.57759 19.3373L11.4695 12.277L18.6631 14.2045C19.0462 14.3071 19.4474 14.0755 19.5604 13.6864L19.9397 12.271C20.0424 11.8879 19.8108 11.4867 19.4216 11.3736L12.2445 9.45052L14.1197 2.38556C14.2223 2.00256 13.9907 1.60139 13.6016 1.48821L12.1862 1.10895C11.8032 1.00633 11.402 1.23794 11.2889 1.62703L9.39711 8.68747L2.33661 6.79561C1.95362 6.69299 1.55245 6.9246 1.43927 7.3137L1.06001 8.72913C0.957381 9.11213 1.18899 9.51329 1.57809 9.62647L8.64914 11.5122L6.75723 18.5726C6.65026 18.9725 6.88188 19.3737 7.27097 19.4868Z" fill="#22754D"/>
</svg>
