<svg width="25" height="25" viewBox="0 0 25 25" fill="none" xmlns="http://www.w3.org/2000/svg">
<path d="M17.5366 7.93568C17.1492 7.54862 16.5225 7.54894 16.1357 7.93568L12.5005 11.5708L8.86648 7.93568C8.4794 7.54894 7.85271 7.54862 7.46564 7.93568C7.07888 8.32243 7.07888 8.94941 7.46564 9.33647L11.0999 12.9716L7.46564 16.6051C7.07888 16.9922 7.07888 17.6189 7.46564 18.0059C7.65885 18.1991 7.91246 18.2957 8.16606 18.2957C8.41934 18.2957 8.67294 18.1991 8.86648 18.0059L12.5005 14.3721L16.1332 18.0056C16.3264 18.1991 16.58 18.2957 16.8336 18.2957C17.0872 18.2957 17.3405 18.1991 17.5337 18.0059C17.9208 17.6192 17.9208 16.9922 17.534 16.6054L13.901 12.9716L17.5366 9.33615C17.9233 8.94973 17.9233 8.32243 17.5366 7.93568Z" fill="white"/>
<path d="M12.5021 0C5.60845 0 0 5.60824 0 12.5016C0 19.3934 5.60845 25 12.5021 25C19.3935 25 25 19.393 25 12.5013C25 5.60824 19.3935 0 12.5021 0ZM12.5021 23.0196C6.70071 23.0196 1.98114 18.3011 1.98114 12.5016C1.98114 6.70046 6.70103 1.98106 12.5021 1.98106C18.3015 1.98106 23.0192 6.70078 23.0192 12.5016C23.0192 18.3011 18.3012 23.0196 12.5021 23.0196Z" fill="white"/>
</svg>
