<svg width="25" height="25" viewBox="0 0 25 25" fill="none" xmlns="http://www.w3.org/2000/svg">
<g clip-path="url(#clip0_9_8)">
<path d="M24.6138 2.48337C24.3084 2.10991 23.8511 1.9043 23.3258 1.9043C23.0402 1.9043 22.7377 1.96438 22.4268 2.08321L1.26481 10.1614C0.141763 10.59 -0.00948986 11.2331 0.000237601 11.5784C0.00996507 11.9236 0.197457 12.5572 1.34301 12.9217C1.34988 12.9238 1.35674 12.9259 1.36361 12.9278L5.75318 14.184L8.12707 20.9723C8.45074 21.8977 9.17725 22.4726 10.0234 22.4726C10.5568 22.4726 11.0816 22.249 11.5408 21.8264L14.2559 19.3264L18.1941 22.4974C18.1944 22.4977 18.195 22.4979 18.1954 22.4983L18.2328 22.5285C18.2362 22.5311 18.2398 22.534 18.2433 22.5367C18.681 22.8762 19.1588 23.0555 19.6255 23.0556H19.6257C20.5376 23.0556 21.2637 22.3806 21.4753 21.3362L24.9426 4.21505C25.0819 3.52783 24.9651 2.9129 24.6138 2.48337V2.48337ZM7.22165 13.9454L15.6905 9.61895L10.4172 15.2222C10.3308 15.3139 10.2696 15.4263 10.2395 15.5485L9.22265 19.6672L7.22165 13.9454ZM10.5484 20.7487C10.5134 20.7809 10.4781 20.8097 10.4428 20.8363L11.3862 17.0155L13.1022 18.3973L10.5484 20.7487ZM23.507 3.92418L20.0396 21.0455C20.0062 21.2093 19.8996 21.5906 19.6255 21.5906C19.4901 21.5906 19.32 21.5168 19.1458 21.3827L14.6834 17.7896C14.6828 17.7891 14.6821 17.7885 14.6813 17.7881L12.0261 15.65L19.6518 7.547C19.896 7.2876 19.9181 6.8903 19.7043 6.60534C19.4903 6.32038 19.1025 6.23074 18.7853 6.39286L6.24299 12.8004L1.79372 11.5274L22.9493 3.45173C23.128 3.38345 23.2527 3.36914 23.3258 3.36914C23.3706 3.36914 23.4503 3.37448 23.4799 3.41091C23.5188 3.4584 23.5684 3.62034 23.507 3.92418V3.92418Z" fill="white"/>
</g>
<defs>
<clipPath id="clip0_9_8">
<rect width="25" height="25" fill="white"/>
</clipPath>
</defs>
</svg>
